<svg width="0" height="0" class="hidden">
    <symbol viewBox="0 0 17 17" xmlns="http://www.w3.org/2000/svg" id="sites-select">
       <path fill-rule="evenodd" clip-rule="evenodd" d="M8.49904 17C3.80506 16.9995 0 13.1942 0 8.50002C0 3.80559 3.80559 0 8.50002 0C13.1944 0 17 3.80559 17 8.50002C17 13.1931 13.1966 16.9978 8.50413 17H8.49904ZM10.8779 2.32941C11.3188 3.11759 11.7295 4.13825 11.9906 5.43493C12.6552 5.32792 13.327 5.17766 14.092 4.97183C13.3377 3.77886 12.2122 2.84395 10.8779 2.32941ZM10.1016 5.63029C9.85063 4.48196 9.47078 3.641 9.10943 3.04571C8.89353 2.69011 8.68093 2.41687 8.50002 2.21443C8.31911 2.41687 8.10655 2.69011 7.89065 3.04571C7.53519 3.63118 7.16197 4.45425 6.91097 5.57366C7.47253 5.6312 8.01567 5.66668 8.50002 5.66668C9.08506 5.66668 9.60999 5.65584 10.1016 5.63029ZM6.64613 7.44515C7.28705 7.51253 7.92216 7.55557 8.50002 7.55557C9.17856 7.55557 9.7866 7.54123 10.3581 7.50771C10.3781 7.82256 10.3889 8.15312 10.3889 8.50002C10.3889 8.84691 10.3781 9.17748 10.3581 9.49231C9.7866 9.45878 9.17856 9.44443 8.50002 9.44443C7.92216 9.44443 7.28705 9.48749 6.64613 9.55493C6.62339 9.22134 6.61113 8.86997 6.61113 8.50002C6.61113 8.13007 6.62339 7.7787 6.64613 7.44515ZM5.0332 5.31979C5.29501 4.07766 5.69441 3.09412 6.12218 2.32941C4.80378 2.83779 3.68931 3.75653 2.93532 4.92907C3.32417 5.01019 3.82443 5.10966 4.38313 5.20906C4.59386 5.24654 4.81141 5.28374 5.0332 5.31979ZM4.77071 7.19084C4.73918 7.60543 4.72224 8.04154 4.72224 8.50002C4.72224 8.9585 4.73918 9.39461 4.77071 9.80917C4.52234 9.84931 4.28166 9.89049 4.05229 9.93129C3.37603 10.0516 2.78321 10.1718 2.35913 10.262C2.27991 10.2788 2.20651 10.2947 2.13951 10.3093C1.97627 9.73428 1.8889 9.12734 1.8889 8.50002C1.8889 7.8727 1.97627 7.26579 2.13951 6.69079C2.20651 6.70537 2.27991 6.72118 2.35913 6.73803C2.78321 6.82823 3.37603 6.94844 4.05229 7.06875C4.28166 7.10956 4.52234 7.15069 4.77071 7.19084ZM5.0332 11.6802C4.81141 11.7163 4.59386 11.7535 4.38313 11.791C3.82443 11.8904 3.32417 11.9898 2.93532 12.0709C3.68931 13.2436 4.80378 14.1622 6.12218 14.6706C5.69441 13.9059 5.29501 12.9224 5.0332 11.6802ZM10.8779 14.6706C11.3188 13.8825 11.7295 12.8618 11.9906 11.5651C12.6552 11.6721 13.327 11.8224 14.092 12.0282C13.3377 13.2212 12.2122 14.1561 10.8779 14.6706ZM10.1016 11.3698C9.60999 11.3442 9.08506 11.3333 8.50002 11.3333C8.01567 11.3333 7.47253 11.3688 6.91097 11.4263C7.16197 12.5458 7.53519 13.3689 7.89065 13.9543C8.10655 14.3099 8.31911 14.5832 8.50002 14.7856C8.68093 14.5832 8.89353 14.3099 9.10943 13.9543C9.47078 13.3591 9.85063 12.518 10.1016 11.3698ZM12.2378 9.69178C13.0656 9.82258 13.8998 10.0134 14.8681 10.2822C15.0265 9.71529 15.1111 9.11755 15.1111 8.50002C15.1111 7.88249 15.0265 7.28475 14.8681 6.71775C13.8998 6.98667 13.0656 7.17742 12.2378 7.30825C12.2639 7.68757 12.2778 8.0846 12.2778 8.50002C12.2778 8.91543 12.2639 9.31248 12.2378 9.69178Z"/>
    </symbol>
     <symbol viewBox="0 0 5 3" xmlns="http://www.w3.org/2000/svg" id="Triangle_down">
      <defs><style> {fill-rule: evenodd;}</style></defs>
      <path id="Rectangle_323_copy_16" data-name="Rectangle 323 copy 16"  d="M826,200h5l-2.514,3Z" transform="translate(-826 -200)"/>
    </symbol>
     <symbol viewBox="0 0 17 17" xmlns="http://www.w3.org/2000/svg" id="search">
        <path  d="M16.709,16.719a1,1,0,0,1-1.412,0l-3.256-3.287A7.475,7.475,0,1,1,15,7.5a7.433,7.433,0,0,1-1.549,4.518l3.258,3.289A1,1,0,0,1,16.709,16.719ZM7.5,2A5.5,5.5,0,1,0,13,7.5,5.5,5.5,0,0,0,7.5,2Z"></path>
    </symbol>
    <symbol viewBox="0 0 20 20" xmlns="http://www.w3.org/2000/svg" id="user">
        <path fill-rule="evenodd" clip-rule="evenodd" d="M10.0049 10.8333C15.1944 10.8333 18.3333 12.7531 18.3333 15.8333C18.3333 16.3425 18.322 16.639 18.2696 17.008C18.0893 18.2803 17.4701 19.1667 16.224 19.1667H3.78586C2.53618 19.1667 1.91255 18.2809 1.73084 17.0089C1.67806 16.6395 1.66663 16.3428 1.66663 15.8333C1.66663 12.7522 4.80707 10.8333 10.0049 10.8333ZM10.0049 12.5C5.60908 12.5 3.33329 13.8905 3.33329 15.8333C3.33329 16.2668 3.34249 16.5053 3.38075 16.7732C3.45971 17.3259 3.58228 17.5 3.78586 17.5H16.224C16.4199 17.5 16.5412 17.3265 16.6195 16.7741C16.6466 16.5825 16.659 16.4059 16.6639 16.1626L16.6666 15.8333C16.6666 13.891 14.3923 12.5 10.0049 12.5ZM9.99996 0.833328C12.2821 0.833328 14.1666 2.64189 14.1666 4.95412C14.1666 7.29427 12.2835 9.16666 9.99996 9.16666C7.72513 9.16666 5.83329 7.29479 5.83329 4.96941C5.83329 2.66635 7.72477 0.833328 9.99996 0.833328ZM9.99996 2.49999C8.63374 2.49999 7.49996 3.59874 7.49996 4.96941C7.49996 6.37033 8.64167 7.5 9.99996 7.5C11.3651 7.5 12.5 6.37165 12.5 4.95412C12.5 3.57805 11.3766 2.49999 9.99996 2.49999Z" fill="#828282"/>
    </symbol>
    <symbol viewBox="0 0 18 17" xmlns="http://www.w3.org/2000/svg" id="compare">
       <defs><style> {fill: #333; fill-rule: evenodd;}</style></defs>
        <path id="Rounded_Rectangle_865" data-name="Rounded Rectangle 865"  d="M597,78a1,1,0,0,1,1,1v9a1,1,0,0,1-2,0V79A1,1,0,0,1,597,78Zm4-6a1,1,0,0,1,1,1V88a1,1,0,0,1-2,0V73A1,1,0,0,1,601,72Zm4,8a1,1,0,0,1,1,1v7a1,1,0,0,1-2,0V81A1,1,0,0,1,605,80Zm-12-5a1,1,0,0,1,1,1V88a1,1,0,0,1-2,0V76A1,1,0,0,1,593,75Zm-4,5a1,1,0,0,1,1,1v7a1,1,0,0,1-2,0V81A1,1,0,0,1,589,80Z" transform="translate(-588 -72)"/>
    </symbol>
    <symbol viewBox="0 0 20 20" xmlns="http://www.w3.org/2000/svg" id="chosen">
       <path d="M18.3932 3.30791C16.218 1.13334 12.6795 1.13334 10.5049 3.30791L9.99983 3.8127L9.49504 3.30791C7.32046 1.13304 3.78163 1.13304 1.60706 3.30791C-0.523361 5.43833 -0.537195 8.81527 1.57498 11.1632C3.50142 13.3039 9.18304 17.9289 9.4241 18.1246C9.58775 18.2576 9.78467 18.3224 9.9804 18.3224C9.98688 18.3224 9.99335 18.3224 9.99953 18.3221C10.202 18.3315 10.406 18.2621 10.575 18.1246C10.816 17.9289 16.4982 13.3039 18.4253 11.1629C20.5371 8.81527 20.5233 5.43833 18.3932 3.30791ZM17.1125 9.98174C15.6105 11.6503 11.4818 15.0917 9.99953 16.313C8.51724 15.092 4.38944 11.6509 2.88773 9.98203C1.41427 8.34433 1.40044 6.01199 2.85564 4.55679C3.59885 3.81388 4.57488 3.44213 5.5509 3.44213C6.52693 3.44213 7.50295 3.81358 8.24616 4.55679L9.3564 5.66703C9.48856 5.79919 9.65516 5.87807 9.82999 5.90574C10.1137 5.96667 10.4216 5.88749 10.6424 5.66732L11.7532 4.55679C13.2399 3.07067 15.6582 3.07097 17.144 4.55679C18.5992 6.01199 18.5854 8.34433 17.1125 9.98174Z" fill="#828282"/>
    </symbol>
    <symbol viewBox="0 0 19 16" xmlns="http://www.w3.org/2000/svg" id="basket">
        <path fill-rule="evenodd" clip-rule="evenodd" d="M16.8 14.2361C18.1255 14.2361 19.2 15.2984 19.2 16.6088C19.2 17.9192 18.1255 18.9815 16.8 18.9815C15.4745 18.9815 14.4 17.9192 14.4 16.6088C14.4 15.2984 15.4745 14.2361 16.8 14.2361ZM6.4 14.2361C7.72548 14.2361 8.8 15.2984 8.8 16.6088C8.8 17.9192 7.72548 18.9815 6.4 18.9815C5.07452 18.9815 4 17.9192 4 16.6088C4 15.2984 5.07452 14.2361 6.4 14.2361ZM6.4 15.8179C5.95817 15.8179 5.6 16.172 5.6 16.6088C5.6 17.0456 5.95817 17.3997 6.4 17.3997C6.84183 17.3997 7.2 17.0456 7.2 16.6088C7.2 16.172 6.84183 15.8179 6.4 15.8179ZM16.8 15.8179C16.3582 15.8179 16 16.172 16 16.6088C16 17.0456 16.3582 17.3997 16.8 17.3997C17.2418 17.3997 17.6 17.0456 17.6 16.6088C17.6 16.172 17.2418 15.8179 16.8 15.8179ZM2.8598 0C4.31483 0 5.57921 0.968978 5.95115 2.34606L5.98877 2.50072L6.3032 3.95447H16.6027C16.6805 3.95447 16.7582 3.96009 16.8351 3.97125L16.9498 3.99214C17.7732 4.17303 18.3062 4.95114 18.1862 5.76322L18.1646 5.8794L17.0594 10.7963C16.826 11.8347 15.9247 12.5866 14.8623 12.65L14.7165 12.6543H8.49347C7.41098 12.6543 6.46919 11.9392 6.18182 10.9197L6.14674 10.7788L4.42429 2.83215C4.2755 2.14573 3.68925 1.64381 2.9918 1.58713L2.8598 1.58179H0V0H2.8598ZM16.6027 5.53626H6.6464L7.71122 10.4473C7.78368 10.7816 8.06362 11.0284 8.40034 11.0672L8.49347 11.0725H14.7165C15.0602 11.0725 15.3617 10.8562 15.4722 10.5414L15.4975 10.4532L16.6027 5.53626Z" fill="white"/>
    </symbol>
    <symbol viewBox="0 0 18 18" xmlns="http://www.w3.org/2000/svg" id="callback">
        <path data-name="Shape 915 copy 16"  d="M1675.69,597.707l-4.3,4.291H1674a1,1,0,0,1,0,2h-5a1,1,0,0,1-1-1v-5a1,1,0,0,1,2,0v2.543l4.26-4.26A1.01,1.01,0,0,1,1675.69,597.707Zm-8.11,16.264a8.9,8.9,0,0,1-4.36-2.409c-0.35-.367-0.8-0.727-1.21-1.156h0l-0.64-.686h0c-0.4-.435-0.74-0.92-1.09-1.287a9.933,9.933,0,0,1-2.25-4.649,5.628,5.628,0,0,1,1.67-4.627c1.95-1.926,3.6-1.073,4.56-.065a5.46,5.46,0,0,1,1.71,3.785c-0.03,1.845-1.18,2.391-.96,2.584,0.08,0.071.23,0.244,0.4,0.427l0.64,0.685a5.412,5.412,0,0,1,.4.43c0.19,0.236.7-1,2.43-1.025a3.56,3.56,0,0,1,3.09,1.342,3.332,3.332,0,0,1-.06,4.865A4.921,4.921,0,0,1,1667.58,613.971Zm3.33-4.872a2.043,2.043,0,0,0-1.69-1.105,2.271,2.271,0,0,0-2.39.891c-0.66.713-1.25-.121-2.12-1.034l-0.65-.686c-0.85-.935-1.63-1.561-0.97-2.264a2.436,2.436,0,0,0,.94-2.393,4.038,4.038,0,0,0-1.44-2.463,1.665,1.665,0,0,0-1.79.47,3.94,3.94,0,0,0-.8,2.894,7.779,7.779,0,0,0,1.52,3.62c0.23,0.263.63,0.8,1.13,1.32l0.65,0.686c0.49,0.533.99,0.966,1.23,1.206a7.023,7.023,0,0,0,3.4,1.741,3.056,3.056,0,0,0,2.54-.972A1.955,1.955,0,0,0,1670.91,609.1Z" transform="translate(-1658 -596)"/>
    </symbol>
    <symbol viewBox="0 0 19 20" xmlns="http://www.w3.org/2000/svg" id="review">
        <path  d="M1715,611h-6l-4,4h-1l-1-1v-3h-1a3,3,0,0,1-3-3V598a3,3,0,0,1,3-3h13a3,3,0,0,1,3,3v10A3,3,0,0,1,1715,611Zm1-13a1,1,0,0,0-1-1h-13a1,1,0,0,0-1,1v10a1,1,0,0,0,1,1h2a1,1,0,0,1,1,1v2.207l3.23-3.208H1715a1,1,0,0,0,1-1V598Zm-5,8a1.986,1.986,0,0,1-1.79-2.875l0.9-2.615a1.035,1.035,0,0,1,1.4-.424,1.047,1.047,0,0,1,.33,1.425l-0.21.6A1.994,1.994,0,0,1,1711,606Zm-5,0a2,2,0,0,1-2-2,1.981,1.981,0,0,1,.21-0.876l0.9-2.615a1.035,1.035,0,0,1,1.4-.424,1.047,1.047,0,0,1,.33,1.425l-0.21.6A1.994,1.994,0,0,1,1706,606Z" transform="translate(-1699 -595)"/>
    </symbol>
      <symbol viewBox="0 0 19 14" xmlns="http://www.w3.org/2000/svg" id="ask">
        <path  d="M1695,612h-15a2,2,0,0,1-2-2V600a2,2,0,0,1,2-2h15a2,2,0,0,1,2,2v10A2,2,0,0,1,1695,612Zm-13.88-2h12.75l-3.12-2.929,1.62-1.134L1695,608.3v-6.2l-7,4.9h-1l-7-4.9v6.2l2.62-2.363,1.62,1.128Zm13.46-10h-14.16l7.07,5Z" transform="translate(-1678 -598)"/>
    </symbol>
    <symbol viewBox="0 0 16 18" xmlns="http://www.w3.org/2000/svg" id="user_login">
        <path data-name="Rounded Rectangle 803 copy"  d="M933.5,961H922.469v0a2.486,2.486,0,0,1-1.848-4.13c0.018-.026.026-0.052,0.046-0.077,1.374-1.7,4.476-2.79,6.833-2.79h1c2.357,0,5.459,1.089,6.833,2.79,0.02,0.025.028,0.051,0.046,0.077A2.475,2.475,0,0,1,936,958.5,2.5,2.5,0,0,1,933.5,961Zm0.5-2.533h0a1.509,1.509,0,0,0-.619-0.9A10.224,10.224,0,0,0,928.5,956h-1a10.224,10.224,0,0,0-4.872,1.566,1.5,1.5,0,0,0-.619.9h0c0,0.01,0,.024,0,0.033a0.5,0.5,0,0,0,.5.5h11a0.5,0.5,0,0,0,.5-0.5C934,958.491,934,958.477,934,958.467ZM928,953a5,5,0,1,1,5-5A5,5,0,0,1,928,953Zm0-8a3,3,0,1,0,3,3A3,3,0,0,0,928,945Z" transform="translate(-920 -943)"></path>
    </symbol>
     <symbol viewBox="0 0 13 13" xmlns="http://www.w3.org/2000/svg" id="location">
        <path data-name="Rounded Rectangle 866 copy"  d="M910.931,77.494l0.007,0.006-3.049,9.55a1.489,1.489,0,0,1-2.744.075h-0.02l-1.438-4.812-4.562-1.344,0-.045a1.474,1.474,0,0,1-.244-2.779l0-.019,9.625-3.062,0.006,0.006A1.977,1.977,0,0,1,911,77,1.963,1.963,0,0,1,910.931,77.494Zm-10.4,1.975,3.359,1.2,1.4-1.372a1,1,0,1,1,1.414,1.414l-1.374,1.346,1.138,3.414,2.5-8.375Z" transform="translate(-898 -75)"></path>
    </symbol>
     <symbol viewBox="0 0 5 13" xmlns="http://www.w3.org/2000/svg" id="phone_black">
       <path class="cls-phone" d="M785.738,193.457a22.174,22.174,0,0,0,1.136,2.041,0.62,0.62,0,0,1-.144.869l-0.3.3a0.908,0.908,0,0,1-.805.33,4.014,4.014,0,0,1-1.491-.274c-1.2-.679-1.657-2.35-1.9-3.664a13.4,13.4,0,0,1,.024-5.081c0.255-1.316.73-2.991,1.935-3.685a4.025,4.025,0,0,1,1.493-.288,0.888,0.888,0,0,1,.8.322l0.3,0.3a0.634,0.634,0,0,1,.113.875c-0.454.8-.788,1.37-1.132,2.045-0.143.28-.266,0.258-0.557,0.214l-0.468-.072a0.532,0.532,0,0,0-.7.366,8.047,8.047,0,0,0-.023,4.909,0.521,0.521,0,0,0,.7.358l0.468-.075c0.291-.048.4-0.066,0.555,0.207h0Z" transform="translate(-782 -184)"/>
    </symbol>
     <symbol viewBox="0 0 5 11" xmlns="http://www.w3.org/2000/svg" id="phone_footer">
        <path id="Shape_51_copy_13" data-name="Shape 51 copy 13"  d="M402.738,141a18.086,18.086,0,0,0,1.136,1.727,0.474,0.474,0,0,1-.144.735l-0.3.257a1,1,0,0,1-.805.279,4.641,4.641,0,0,1-1.491-.232,4.228,4.228,0,0,1-1.9-3.1,9.614,9.614,0,0,1,.025-4.3,4.335,4.335,0,0,1,1.934-3.118,4.707,4.707,0,0,1,1.493-.244,0.974,0.974,0,0,1,.8.272l0.3,0.255a0.481,0.481,0,0,1,.113.739c-0.454.677-.788,1.159-1.132,1.731a0.43,0.43,0,0,1-.557.181l-0.468-.061a0.553,0.553,0,0,0-.7.309,6.205,6.205,0,0,0-.395,2.079,6.128,6.128,0,0,0,.372,2.076,0.541,0.541,0,0,0,.7.3l0.468-.063a0.432,0.432,0,0,1,.555.175h0Z" transform="translate(-399 -133)"></path>
    </symbol>    
</svg>



