<svg xmlns="http://www.w3.org/2000/svg" width="21" height="22" viewBox="0 0 21 22" fill="none">
<g opacity="0.5">
<path d="M9.09954 2.6001H2.79954C2.41482 2.6001 2.09961 2.91468 2.09961 3.30003V9.60003C2.09961 9.98433 2.41482 10.3 2.79954 10.3H9.09954C9.48447 10.3 9.79968 9.98412 9.79968 9.60003V3.30003C9.79968 2.91468 9.48447 2.6001 9.09954 2.6001ZM8.39961 8.9001H3.49968V4.00017H8.39961V8.9001Z" fill="white"/>
<path d="M18.2003 2.6001H11.9003C11.5154 2.6001 11.2002 2.91468 11.2002 3.30003V9.60003C11.2002 9.98433 11.5154 10.3 11.9003 10.3H18.2003C18.5851 10.3 18.9003 9.98412 18.9003 9.60003V3.30003C18.9003 2.91468 18.5851 2.6001 18.2003 2.6001ZM17.5002 8.9001H12.6003V4.00017H17.5002V8.9001Z" fill="white"/>
<path d="M9.09954 11.7002H2.79954C2.41482 11.7002 2.09961 12.0146 2.09961 12.4001V18.7001C2.09961 19.0842 2.41482 19.4001 2.79954 19.4001H9.09954C9.48447 19.4001 9.79968 19.0842 9.79968 18.7001V12.4001C9.79968 12.0146 9.48447 11.7002 9.09954 11.7002ZM8.39961 18.0002H3.49968V13.1001H8.39961V18.0002Z" fill="white"/>
<path d="M18.2003 11.7002H11.9003C11.5154 11.7002 11.2002 12.0146 11.2002 12.4001V18.7001C11.2002 19.0842 11.5154 19.4001 11.9003 19.4001H18.2003C18.5851 19.4001 18.9003 19.0842 18.9003 18.7001V12.4001C18.9003 12.0146 18.5851 11.7002 18.2003 11.7002ZM17.5002 18.0002H12.6003V13.1001H17.5002V18.0002Z" fill="white"/>
</g>
</svg>