<svg xmlns="http://www.w3.org/2000/svg" width="20" height="21" viewBox="0 0 20 21" fill="none">
<g clip-path="url(#clip0_1_117)">
<path d="M10.0042 20.5083C15.5293 20.5083 20.0083 16.0293 20.0083 10.5042C20.0083 4.97902 15.5293 0.5 10.0042 0.5C4.47902 0.5 0 4.97902 0 10.5042C0 16.0293 4.47902 20.5083 10.0042 20.5083Z" fill="#0396DE"/>
<path fill-rule="evenodd" clip-rule="evenodd" d="M4.52308 10.3959C7.43853 9.12974 9.37939 8.28842 10.354 7.88026C13.1278 6.72241 13.7109 6.52249 14.0858 6.51416C14.1691 6.51416 14.3523 6.53082 14.4773 6.63078C14.5772 6.71408 14.6022 6.82237 14.6189 6.90566C14.6355 6.98896 14.6522 7.16389 14.6355 7.29717C14.4856 8.87984 13.8359 12.7199 13.5027 14.4858C13.3611 15.2355 13.0862 15.4854 12.8196 15.5104C12.2365 15.5604 11.795 15.1272 11.2369 14.7607C10.354 14.186 9.86252 13.8278 9.00455 13.2613C8.01329 12.6116 8.65469 12.2534 9.22112 11.6703C9.37106 11.5204 11.9283 9.18805 11.9783 8.9798C11.9866 8.95481 11.9866 8.85485 11.9283 8.80487C11.87 8.75489 11.7867 8.77155 11.7201 8.78821C11.6285 8.80487 10.229 9.73782 7.50517 11.5787C7.10534 11.8536 6.74715 11.9869 6.42229 11.9786C6.06411 11.9702 5.38106 11.7786 4.86461 11.612C4.23987 11.4121 3.74007 11.3038 3.78172 10.954C3.80671 10.7707 4.05661 10.5875 4.52308 10.3959Z" fill="white"/>
</g>
<defs>
<clipPath id="clip0_1_117">
<rect width="20" height="20" fill="white" transform="translate(0 0.5)"/>
</clipPath>
</defs>
</svg>