<svg xmlns="http://www.w3.org/2000/svg" width="20" height="21" viewBox="0 0 20 21" fill="none">
  <g clip-path="url(#clip0_1_114)">
    <path d="M10.0025 0.5H9.9975C4.48375 0.5 0 4.985 0 10.5C0 12.6875 0.705 14.715 1.90375 16.3612L0.6575 20.0763L4.50125 18.8475C6.0825 19.895 7.96875 20.5 10.0025 20.5C15.5162 20.5 20 16.0138 20 10.5C20 4.98625 15.5162 0.5 10.0025 0.5Z" fill="#22D265"/>
    <path d="M15.8212 14.6212C15.5799 15.3025 14.6224 15.8675 13.8587 16.0325C13.3362 16.1437 12.6537 16.2325 10.3562 15.28C7.41744 14.0625 5.52494 11.0762 5.37744 10.8825C5.23619 10.6887 4.18994 9.30125 4.18994 7.86625C4.18994 6.43125 4.91869 5.7325 5.21244 5.4325C5.45369 5.18625 5.85244 5.07375 6.23494 5.07375C6.35869 5.07375 6.46994 5.08 6.56994 5.085C6.86369 5.0975 7.01119 5.115 7.20494 5.57875C7.44619 6.16 8.03369 7.595 8.10369 7.7425C8.17494 7.89 8.24619 8.09 8.14619 8.28375C8.05244 8.48375 7.96994 8.5725 7.82244 8.7425C7.67494 8.9125 7.53494 9.0425 7.38744 9.225C7.25244 9.38375 7.09994 9.55375 7.26994 9.8475C7.43994 10.135 8.02744 11.0937 8.89244 11.8637C10.0087 12.8575 10.9137 13.175 11.2374 13.31C11.4787 13.41 11.7662 13.3862 11.9424 13.1987C12.1662 12.9575 12.4424 12.5575 12.7237 12.1637C12.9237 11.8812 13.1762 11.8462 13.4412 11.9462C13.7112 12.04 15.1399 12.7462 15.4337 12.8925C15.7274 13.04 15.9212 13.11 15.9924 13.2337C16.0624 13.3575 16.0624 13.9387 15.8212 14.6212Z" fill="#FAFAFA"/>
  </g>
  <defs>
    <clipPath id="clip0_1_114">
      <rect width="20" height="20" fill="white" transform="translate(0 0.5)"/>
    </clipPath>
  </defs>
</svg>